<svg width="36" height="37" viewBox="0 0 36 37" fill="none" xmlns="http://www.w3.org/2000/svg">
<path d="M4.5 18.3606C4.5 10.9048 10.5442 4.8606 18 4.8606C25.4558 4.8606 31.5 10.9048 31.5 18.3606C31.5 25.8164 25.4558 31.8606 18 31.8606C10.5442 31.8606 4.5 25.8164 4.5 18.3606Z" fill="#D0D0D0"/>
<circle cx="18" cy="15.3606" r="6" fill="#222222"/>
<path d="M18 22.8606C22.0993 22.8606 25.6496 24.8745 27.3788 27.8106C27.4359 27.9076 27.4182 28.0308 27.337 28.1086C24.9121 30.4319 21.6233 31.8606 18 31.8606C14.3769 31.8606 11.0878 30.4326 8.66304 28.1096C8.58176 28.0317 8.56406 27.9086 8.62116 27.8116C10.3501 24.875 13.9004 22.8607 18 22.8606Z" fill="#222222"/>
</svg>
