<svg width="25" height="24" viewBox="0 0 25 24" fill="none" xmlns="http://www.w3.org/2000/svg">
<path d="M10.4639 15L10.4639 12" stroke="#FA3B3B" stroke-width="2" stroke-linecap="round"/>
<path d="M14.4639 15L14.4639 12" stroke="#FA3B3B" stroke-width="2" stroke-linecap="round"/>
<path d="M3.46387 7H21.4639V7C20.532 7 20.066 7 19.6985 7.15224C19.2084 7.35523 18.8191 7.74458 18.6161 8.23463C18.4639 8.60218 18.4639 9.06812 18.4639 10V16C18.4639 17.8856 18.4639 18.8284 17.8781 19.4142C17.2923 20 16.3495 20 14.4639 20H10.4639C8.57825 20 7.63544 20 7.04965 19.4142C6.46387 18.8284 6.46387 17.8856 6.46387 16V10C6.46387 9.06812 6.46387 8.60218 6.31163 8.23463C6.10864 7.74458 5.71929 7.35523 5.22923 7.15224C4.86169 7 4.39575 7 3.46387 7V7Z" stroke="#FA3B3B" stroke-width="2" stroke-linecap="round"/>
<path d="M10.532 3.37059C10.646 3.26427 10.8971 3.17033 11.2463 3.10332C11.5956 3.03632 12.0236 3 12.4639 3C12.9041 3 13.3321 3.03632 13.6814 3.10332C14.0307 3.17033 14.2818 3.26427 14.3957 3.37059" stroke="#FA3B3B" stroke-width="2" stroke-linecap="round"/>
</svg>
